<svg width="22" height="22" viewBox="0 0 22 22" fill="none" xmlns="http://www.w3.org/2000/svg">
<g id="direct">
<path id="Combined Shape" d="M13.7284 15.5L14.3317 14.7024C14.158 14.5711 13.9462 14.5 13.7284 14.5V15.5ZM21 21L20.3968 21.7976C20.7542 22.0679 21.248 22.0674 21.6049 21.7963C21.9618 21.5252 22.0947 21.0497 21.9301 20.6328L21 21ZM18.2585 14.0561L17.6496 13.2629C17.2955 13.5346 17.1644 14.0082 17.3283 14.4233L18.2585 14.0561ZM2 8C2 4.68629 4.68629 2 8 2V0C3.58172 0 0 3.58172 0 8H2ZM2 8.5V8H0V8.5H2ZM8 14.5C4.68629 14.5 2 11.8137 2 8.5H0C0 12.9183 3.58172 16.5 8 16.5V14.5ZM13.7284 14.5H8V16.5H13.7284V14.5ZM13.1252 16.2976L20.3968 21.7976L21.6032 20.2024L14.3317 14.7024L13.1252 16.2976ZM21.9301 20.6328L19.1886 13.6889L17.3283 14.4233L20.0699 21.3672L21.9301 20.6328ZM20 8.5C20 10.4398 19.0806 12.1644 17.6496 13.2629L18.8674 14.8494C20.7702 13.3887 22 11.0878 22 8.5H20ZM20 8V8.5H22V8H20ZM14 2C17.3137 2 20 4.68629 20 8H22C22 3.58172 18.4183 0 14 0V2ZM8 2H14V0H8V2Z" fill="#4A525A"/>
</g>
</svg>
