<svg width="22" height="22" viewBox="0 0 22 22" fill="none" xmlns="http://www.w3.org/2000/svg">
<g id="home">
<path id="Combined Shape" d="M21 7.8H22C22 7.4689 21.8361 7.15926 21.5623 6.97307L21 7.8ZM11 1L11.5623 0.173074C11.223 -0.0576912 10.777 -0.0576912 10.4377 0.173074L11 1ZM13.4 21H12.4C12.4 21.5523 12.8477 22 13.4 22V21ZM13.4 13H14.4C14.4 12.4477 13.9523 12 13.4 12V13ZM8.6 13V12C8.04772 12 7.6 12.4477 7.6 13H8.6ZM8.6 21V22C9.15229 22 9.6 21.5523 9.6 21H8.6ZM1 7.8L0.43769 6.97307C0.163891 7.15926 0 7.4689 0 7.8H1ZM21.5623 6.97307L11.5623 0.173074L10.4377 1.82693L20.4377 8.62693L21.5623 6.97307ZM22 15V7.8H20V15H22ZM15 22C18.866 22 22 18.866 22 15H20C20 17.7614 17.7614 20 15 20V22ZM13.4 22H15V20H13.4V22ZM12.4 13V21H14.4V13H12.4ZM8.6 14H13.4V12H8.6V14ZM9.6 21V13H7.6V21H9.6ZM7 22H8.6V20H7V22ZM0 15C0 18.866 3.13401 22 7 22V20C4.23858 20 2 17.7614 2 15H0ZM0 7.8V15H2V7.8H0ZM10.4377 0.173074L0.43769 6.97307L1.56231 8.62693L11.5623 1.82693L10.4377 0.173074Z" fill="#4A525A"/>
</g>
</svg>
