<svg width="22" height="22" viewBox="0 0 22 22" fill="none" xmlns="http://www.w3.org/2000/svg">
<g id="settings">
<path id="Combined Shape" d="M8.87868 2.45168L9.58579 3.15878L9.58579 3.15878L8.87868 2.45168ZM13.1213 2.45168L12.4142 3.15878L12.4142 3.15878L13.1213 2.45168ZM7.83034 3.50002V4.50002H8.24455L8.53745 4.20712L7.83034 3.50002ZM3.5 7.83036L4.20711 8.53746L4.5 8.24457V7.83036H3.5ZM2.45166 8.87869L1.74456 8.17159L1.74456 8.17159L2.45166 8.87869ZM2.45166 13.1213L3.15877 12.4142L3.15877 12.4142L2.45166 13.1213ZM3.5 14.1697H4.5V13.7555L4.20711 13.4626L3.5 14.1697ZM7.83034 18.5L8.53745 17.7929L8.24456 17.5H7.83034V18.5ZM8.87868 19.5484L9.58579 18.8412L9.58579 18.8412L8.87868 19.5484ZM13.1213 19.5484L13.8284 20.2555L13.8284 20.2555L13.1213 19.5484ZM14.1697 18.5V17.5H13.7554L13.4625 17.7929L14.1697 18.5ZM18.5 14.1697L17.7929 13.4626L17.5 13.7555V14.1697H18.5ZM19.5483 13.1213L20.2554 13.8284L20.2554 13.8284L19.5483 13.1213ZM19.5483 8.87869L18.8412 9.5858L18.8412 9.5858L19.5483 8.87869ZM18.5 7.83036H17.5V8.24457L17.7929 8.53746L18.5 7.83036ZM14.1697 3.50002L13.4626 4.20712L13.7554 4.50002H14.1697V3.50002ZM9.58579 3.15878C10.3668 2.37774 11.6332 2.37774 12.4142 3.15878L13.8284 1.74457C12.2663 0.182473 9.73367 0.182474 8.17157 1.74457L9.58579 3.15878ZM8.53745 4.20712L9.58579 3.15878L8.17157 1.74457L7.12323 2.79291L8.53745 4.20712ZM6.5 4.50002H7.83034V2.50002H6.5V4.50002ZM4.5 6.50002C4.5 5.39545 5.39543 4.50002 6.5 4.50002V2.50002C4.29086 2.50002 2.5 4.29088 2.5 6.50002H4.5ZM4.5 7.83036V6.50002H2.5V7.83036H4.5ZM3.15877 9.5858L4.20711 8.53746L2.79289 7.12325L1.74456 8.17159L3.15877 9.5858ZM3.15877 12.4142C2.37772 11.6332 2.37772 10.3668 3.15877 9.5858L1.74456 8.17159C0.182458 9.73369 0.182459 12.2663 1.74456 13.8284L3.15877 12.4142ZM4.20711 13.4626L3.15877 12.4142L1.74456 13.8284L2.79289 14.8768L4.20711 13.4626ZM4.5 15.5V14.1697H2.5V15.5H4.5ZM6.5 17.5C5.39543 17.5 4.5 16.6046 4.5 15.5H2.5C2.5 17.7092 4.29086 19.5 6.5 19.5V17.5ZM7.83034 17.5H6.5V19.5H7.83034V17.5ZM9.58579 18.8412L8.53745 17.7929L7.12324 19.2071L8.17157 20.2555L9.58579 18.8412ZM12.4142 18.8412C11.6332 19.6223 10.3668 19.6223 9.58579 18.8412L8.17157 20.2555C9.73367 21.8176 12.2663 21.8176 13.8284 20.2555L12.4142 18.8412ZM13.4625 17.7929L12.4142 18.8412L13.8284 20.2555L14.8768 19.2071L13.4625 17.7929ZM15.5 17.5H14.1697V19.5H15.5V17.5ZM17.5 15.5C17.5 16.6046 16.6046 17.5 15.5 17.5V19.5C17.7091 19.5 19.5 17.7092 19.5 15.5H17.5ZM17.5 14.1697V15.5H19.5V14.1697H17.5ZM18.8412 12.4142L17.7929 13.4626L19.2071 14.8768L20.2554 13.8284L18.8412 12.4142ZM18.8412 9.5858C19.6223 10.3668 19.6223 11.6332 18.8412 12.4142L20.2554 13.8284C21.8175 12.2663 21.8175 9.73368 20.2554 8.17159L18.8412 9.5858ZM17.7929 8.53746L18.8412 9.5858L20.2554 8.17159L19.2071 7.12325L17.7929 8.53746ZM17.5 6.50002V7.83036H19.5V6.50002H17.5ZM15.5 4.50002C16.6046 4.50002 17.5 5.39545 17.5 6.50002H19.5C19.5 4.29088 17.7091 2.50002 15.5 2.50002V4.50002ZM14.1697 4.50002H15.5V2.50002H14.1697V4.50002ZM12.4142 3.15878L13.4626 4.20712L14.8768 2.79291L13.8284 1.74457L12.4142 3.15878Z" fill="#4A525A"/>
<path id="Oval" fill-rule="evenodd" clip-rule="evenodd" d="M11 14.5C12.933 14.5 14.5 12.933 14.5 11C14.5 9.067 12.933 7.5 11 7.5C9.067 7.5 7.5 9.067 7.5 11C7.5 12.933 9.067 14.5 11 14.5Z" stroke="#4A525A" stroke-width="2"/>
</g>
</svg>
