<svg width="21" height="22" viewBox="0 0 21 22" fill="none" xmlns="http://www.w3.org/2000/svg">
<g id="users">
<path id="Path" d="M10 13C10 12.1716 10.6716 11.5 11.5 11.5H18C18.8284 11.5 19.5 12.1716 19.5 13V16.5H16.5" stroke="#4A525A" stroke-width="2" stroke-linejoin="round"/>
<path id="Combined Shape" d="M12.75 6.98281L11.8058 6.65341L11.6469 7.10885L11.9044 7.51671L12.75 6.98281ZM12.6332 3.71762L11.7517 3.24544L11.5238 3.67093L11.7151 4.11405L12.6332 3.71762ZM13.6942 7.3122C13.8926 6.74345 14 6.1332 14 5.5H12C12 5.90586 11.9313 6.29356 11.8058 6.65341L13.6942 7.3122ZM14 5.5C14 4.72796 13.8403 3.99059 13.5513 3.32119L11.7151 4.11405C11.8981 4.53776 12 5.00568 12 5.5H14ZM15.5 1C13.876 1 12.4664 1.91117 11.7517 3.24544L13.5147 4.1898C13.8952 3.47952 14.6424 3 15.5 3V1ZM19.75 5.25C19.75 2.90279 17.8472 1 15.5 1V3C16.7426 3 17.75 4.00736 17.75 5.25H19.75ZM15.5 9.5C17.8472 9.5 19.75 7.59721 19.75 5.25H17.75C17.75 6.49264 16.7426 7.5 15.5 7.5V9.5ZM11.9044 7.51671C12.6556 8.7063 13.9847 9.5 15.5 9.5V7.5C14.6995 7.5 13.9957 7.08265 13.5955 6.4489L11.9044 7.51671Z" fill="#4A525A"/>
<path id="Rectangle" d="M1 19C1 15.6863 3.68629 13 7 13H10.5C13.8137 13 16.5 15.6863 16.5 19V21H1V19Z" stroke="#4A525A" stroke-width="2" stroke-linejoin="round"/>
<path id="Oval" fill-rule="evenodd" clip-rule="evenodd" d="M8.5 10C10.9853 10 13 7.98528 13 5.5C13 3.01472 10.9853 1 8.5 1C6.01472 1 4 3.01472 4 5.5C4 7.98528 6.01472 10 8.5 10Z" stroke="#4A525A" stroke-width="2"/>
</g>
</svg>
